<svg xmlns="http://www.w3.org/2000/svg" width="1200" height="1200"><path d="M582.969 603.845c.527-.02-1.427 12.162-1.808 13.16-2.149 5.412-8.003 10.374-14.149 9.632a6.532 6.532 0 01-.73-.101c-6.381-1.228-10.994-8.408-14.919-12.917-4.622-5.315-17.611-14.744-25.241-13.309 12.041-2.275 21.219-9.089 28.816-18.738 4.873-5.736 14.878-8.582 21.421-3.851 5.976 4.326 4.727 11.72 5.425 18.154-6.6.179-13.249 1.184-19.492 3.681 7.193 2.611 12.796 4.914 20.677 4.289zm45.129 32.591c-.04.235-.081.487-.138.718-1.435 6.34-8.749 10.723-13.394 14.501-5.449 4.451-15.292 17.128-14.1 24.811-1.889-12.114-8.4-21.511-17.797-29.412-5.586-5.043-8.116-15.134-3.17-21.531 4.5-5.833 11.854-4.354 18.316-4.832-.041 6.592.754 13.273 3.049 19.589 2.854-7.09 5.319-12.62 4.962-20.534-.016-.515 12.097 1.829 13.086 2.246 5.343 2.318 10.111 8.318 9.186 14.444zm-33.259-46.103c5.335-4.281 13.143-3.438 17.432 1.913 4.297 5.335 3.438 13.143-1.905 17.432-5.343 4.293-13.143 3.426-17.44-1.905-4.273-5.343-3.43-13.143 1.913-17.44zm11.562-11.209c-.284-6.608-1.403-13.22-4.006-19.431-2.497 7.228-4.711 12.867-3.957 20.749.041.531-12.17-1.228-13.175-1.606-5.457-2.055-10.5-7.828-9.876-13.978.024-.251.056-.494.105-.734 1.127-6.397 8.23-11.128 12.664-15.13 5.246-4.703 14.457-17.846 12.892-25.46 2.473 12.008 9.438 21.085 19.208 28.512 5.813 4.78 8.829 14.736 4.2 21.361-4.222 6.049-11.633 4.914-18.055 5.717zm43.533 40.147c-4.97 5.651-15.024 8.315-21.478 3.474-5.903-4.415-4.525-11.789-5.108-18.244 6.608-.061 13.265-.949 19.549-3.34-7.135-2.732-12.697-5.129-20.595-4.662-.527.029 1.638-12.122 2.059-13.107 2.23-5.38 8.157-10.233 14.303-9.405.243.049.487.077.722.134 6.356 1.338 10.849 8.603 14.684 13.171 4.54 5.392 17.351 15.053 25.013 13.755-12.082 2.053-21.382 8.709-29.149 18.224zm46.58-29.384l16.176 10.152-15.543 11.42L1150 604.048zm-193.029 0l-16.175 10.152 15.543 11.42L50 604.048z" fill="#E0B278"/></svg>